<svg width="88" height="88" viewBox="0 0 88 88" fill="none" xmlns="http://www.w3.org/2000/svg">
<path d="M68.248 72.7971H19.1094C12.8014 72.7971 7.64652 67.8597 7.29851 61.6387L7.27979 60.9674L7.27979 22.7485C7.27979 18.4139 10.6473 14.8658 14.9088 14.5777L15.4695 14.5588H60.9682C65.3029 14.5588 68.851 17.9263 69.1391 22.1878L69.158 22.7485V25.4785H71.8879C76.2225 25.4785 79.7707 28.846 80.0588 33.1075L80.0777 33.6682V60.9674C80.0777 67.2755 75.1403 72.4304 68.9193 72.7784L68.248 72.7971H19.1094H68.248ZM19.1094 67.3372H68.248C71.5901 67.3372 74.331 64.7634 74.5967 61.4899L74.6178 60.9674V33.6682C74.6178 32.2862 73.5908 31.144 72.2584 30.9632L71.8879 30.9383H69.158V59.1475C69.158 60.5295 68.131 61.6717 66.7985 61.8525L66.4281 61.8774C65.046 61.8774 63.9039 60.8504 63.7231 59.5179L63.6982 59.1475V22.7485C63.6982 21.3665 62.6712 20.2243 61.3387 20.0435L60.9682 20.0186H15.4695C14.0875 20.0186 12.9453 21.0456 12.7645 22.3781L12.7396 22.7485L12.7396 60.9674C12.7396 64.3095 15.3134 67.0504 18.587 67.3161L19.1094 67.3372H68.248H19.1094ZM44.5742 52.7777H55.5166C57.0242 52.7777 58.2465 53.9999 58.2465 55.5076C58.2465 56.8896 57.2195 58.0318 55.887 58.2126L55.5166 58.2375H44.5742C43.0665 58.2375 41.8443 57.0153 41.8443 55.5076C41.8443 54.1255 42.8713 52.9834 44.2038 52.8026L44.5742 52.7777H55.5166H44.5742ZM33.6446 40.0543C35.1523 40.0543 36.3745 41.2766 36.3745 42.7843V55.5076C36.3745 57.0153 35.1523 58.2375 33.6446 58.2375H20.9212C19.4135 58.2375 18.1913 57.0153 18.1913 55.5076V42.7843C18.1913 41.2766 19.4135 40.0543 20.9212 40.0543H33.6446ZM30.9147 45.5142H23.6512V52.7777H30.9147V45.5142ZM44.5742 40.0543H55.5166C57.0242 40.0543 58.2465 41.2766 58.2465 42.7843C58.2465 44.1663 57.2195 45.3085 55.887 45.4893L55.5166 45.5142H44.5742C43.0665 45.5142 41.8443 44.2919 41.8443 42.7843C41.8443 41.4022 42.8713 40.26 44.2038 40.0793L44.5742 40.0543H55.5166H44.5742ZM20.9212 27.3074H55.5166C57.0242 27.3074 58.2465 28.5296 58.2465 30.0373C58.2465 31.4194 57.2195 32.5616 55.887 32.7423L55.5166 32.7672H20.9212C19.4135 32.7672 18.1913 31.545 18.1913 30.0373C18.1913 28.6553 19.2183 27.5131 20.5508 27.3323L20.9212 27.3074H55.5166H20.9212Z" fill="black" fill-opacity="0.1"/>
</svg>
