
<svg version="1.1" id="Layer_1" xmlns="http://www.w3.org/2000/svg" xmlns:xlink="http://www.w3.org/1999/xlink" x="0px" y="0px"
    width="70px" height="140px" viewBox="0 0 9 14" style="enable-background:new 0 0 7 14; overflor: visible;" xml:space="preserve">

    <style type="text/css">


            @keyframes dizzy
            {
                0% {transform: rotate(0deg); }
                100% {transform: rotate(360deg); }
            }

            @keyframes pulsate
            {
                0% {transform: scale(1.0, 1.0) rotate(0deg); }
                33.3333% {transform: scale(1.1, 0.9) rotate(6deg); }
                66.6667% {transform: scale(1.0, 1.0) rotate(0deg); }
                100% {transform: scale(1.0, 1.0) rotate(0deg); }
            }




        .flame{transform-origin: 5px 7px; animation-name: pulsate; animation-duration: 2s; animation-iteration-count: infinite; animation-timing-function: ease-in-out;}









        .st0{fill:url(#SVGID_1_);}
        .st1{display:none;fill:#940800;}
        .st2{opacity:0.8;}
        .st3{fill:none;stroke:#FFD700;stroke-width:0.1667;stroke-linecap:round;stroke-miterlimit:10;animation-delay:0.0000s;}
        .st4{fill:none;stroke:#EAA101;stroke-width:0.1667;stroke-linecap:round;stroke-miterlimit:10;animation-delay:0.1667s;}
        .st5{fill:none;stroke:#D46C02;stroke-width:0.1667;stroke-linecap:round;stroke-miterlimit:10;animation-delay:0.3333s;}
        .st6{fill:none;stroke:#BF3603;stroke-width:0.1667;stroke-linecap:round;stroke-miterlimit:10;animation-delay:0.5000s;}
        .st7{fill:none;stroke:#AA0004;stroke-width:0.1667;stroke-linecap:round;stroke-miterlimit:10;animation-delay:0.6667s;}
        .st8{fill:url(#SVGID_2_);}





    </style>




    <linearGradient id="SVGID_1_" gradientUnits="userSpaceOnUse" x1="0.2412" y1="0.9082" x2="7.513" y2="13.5034">
        <stop  offset="0" style="stop-color:#002645"/>
        <stop  offset="1" style="stop-color:#003966"/>
    </linearGradient>


    <path class="st0" d="M6.8281,13.6473c-0.1514-0.6673-0.3886-1.3397-0.5762-2.0002c0.8413,0.4935-0.1258-2.3389-0.1151-2.8027
        c-0.3253-1.4205-0.3397-2.9139-1.191-4.1391c-0.2479-0.3891-0.7099-0.899-1.045-1.2181C3.5482,3.2175,3.5648,2.6845,3.217,2.3873
        C2.958,2.1889,3.0566,1.8247,3.1671,1.5684c0.0358-0.1206,0.259,0.0822,0.3841-0.0285l0.0269,0.1915
        C4.0421,0.911,2.8266-0.136,1.9917,0C0.87,0.1707,0.7254,1.5499,0.6548,2.4565c-0.1495,0.7298-0.5512,1.3934-0.6184,2.151
        c-0.256,1.6697,0.711,3.1732,1.7978,4.3508c0.7782,0.7583,1.475,1.9548,2.3932,2.4321C4.4723,11.6844,6.9347,14.9618,6.8281,13.6473
        z"/>
    <path class="st1" d="M6.8281,13.6473c-0.0384-0.167-0.0768-0.334-0.1268-0.501C6.6015,12.8,6.4939,12.4578,6.3902,12.1115
        l-0.1383-0.4644l0.1037,0.053c0,0,0.0231,0.0244,0.0346,0.0325c0.1114,0.0734,0.1882,0.0367,0.1882-0.1018
        c0.0084-0.1987-0.0006-0.3978-0.0269-0.5948c-0.0461-0.3422-0.1153-0.6803-0.1767-1.0225c-0.0307-0.167-0.073-0.3341-0.1076-0.5011
        c-0.0346-0.167-0.0884-0.4481-0.1306-0.6681c-0.0423-0.22-0.073-0.3626-0.1037-0.5459C6.0022,8.1151,5.9792,8.001,5.9523,7.8544
        C5.9254,7.7077,5.8985,7.6059,5.8716,7.4836l-0.0807-0.44C5.764,6.9092,5.741,6.7789,5.7179,6.6363
        c-0.023-0.1426-0.0346-0.2159-0.0576-0.3218c-0.023-0.1059-0.0691-0.2566-0.1152-0.3829c-0.0476-0.151-0.1027-0.2993-0.1652-0.444
        c-0.0768-0.1711-0.169-0.3341-0.2612-0.497C5.0649,4.8927,5.0072,4.7949,4.9458,4.7053L4.6116,4.2449
        c-0.0576-0.0733-0.1191-0.1507-0.1844-0.22L3.9009,3.4872c-0.0538-0.057-0.1191-0.1018-0.1767-0.1548
        c-0.018-0.0217-0.0323-0.0465-0.0423-0.0733C3.6413,3.0958,3.5792,2.9395,3.4975,2.7947C3.4242,2.6445,3.3296,2.5071,3.2171,2.3873
        C3.1505,2.3371,3.1007,2.2658,3.0749,2.1836c-0.0307-0.1145-0.0307-0.2358,0-0.3503C3.098,1.7436,3.1364,1.658,3.1671,1.5684
        c0.0307-0.0896,0.0307-0.053,0.0691-0.0285c0.1018,0.0389,0.2132,0.0389,0.315,0l0.0269,0.1915
        C3.6313,1.6739,3.6685,1.602,3.6857,1.5236C3.7117,1.423,3.713,1.3171,3.6895,1.2158C3.666,1.1146,3.6184,1.0214,3.5513,0.9451
        c-0.0461-0.0611-0.1037-0.11-0.1537-0.167C3.3859,0.7676,3.3778,0.7533,3.3746,0.7374c0.0006-0.0465-0.008-0.0926-0.0252-0.1354
        C3.3322,0.5591,3.3067,0.5206,3.2747,0.4889C3.1685,0.3634,3.0372,0.2646,2.8905,0.1996C2.7652,0.1396,2.637,0.0865,2.5064,0.0407
        C2.441,0.0211,2.3742,0.0075,2.3066,0H2.2413H1.9916L1.8341,0.0326C1.6937,0.0639,1.5622,0.1294,1.4499,0.2241
        C1.2496,0.3764,1.0885,0.5794,0.9813,0.8148C0.8849,1.0414,0.8139,1.2794,0.77,1.5236C0.7316,1.6947,0.7124,1.874,0.6893,2.0491
        c-0.023,0.1752,0,0.277-0.0346,0.4074c-0.0219,0.169-0.0632,0.3345-0.1229,0.4929C0.3792,3.2727,0.257,3.6111,0.1669,3.9598
        C0.1169,4.1757,0.0747,4.3916,0.0362,4.6075c0,0.1018,0,0.2118-0.023,0.3178C0.0013,5.0484-0.0026,5.1723,0.0017,5.296
        c0,0.2281,0.0423,0.4522,0.0807,0.6763C0.1501,6.334,0.272,6.682,0.4434,7.0029c0.1037,0.1996,0.2228,0.387,0.3342,0.5826
        C0.843,7.6996,0.9083,7.8177,0.9851,7.9277c0.0768,0.11,0.1652,0.22,0.2497,0.3259L1.619,8.7058
        c0.0691,0.0856,0.1421,0.167,0.2151,0.2526l0.4341,0.4929C2.3565,9.5531,2.4411,9.655,2.5333,9.7528
        c0.3842,0.4318,0.7683,0.8636,1.1794,1.2832c0.1287,0.1269,0.2647,0.2453,0.4072,0.3544c0.0576,0.0489,0.0807,0.0408,0.1076,0
        c0.0499,0.0693,0.0999,0.1467,0.1537,0.216l0.4648,0.5499c0.096,0.1141,0.1882,0.2363,0.2881,0.3504
        c0.0999,0.114,0.1921,0.2077,0.2843,0.3137c0.146,0.1711,0.2843,0.3503,0.4379,0.5173c0.1047,0.1108,0.215,0.2155,0.3304,0.3137
        c0.0938,0.0816,0.1926,0.1564,0.2958,0.2241c0.0751,0.0445,0.1535,0.0827,0.2343,0.114c0.0653,0.0286,0.1152,0,0.1306-0.1018
        v-0.0733C6.8435,13.741,6.8397,13.6962,6.8281,13.6473z"/>



    <g class="st2">
        <path class="flame st3" d="M4,3c0.4611,0.4546,1.0231,1.1119,1.5,2c0.8715,1.623,0.9967,3.1565,1,4"/>
        <path class="flame st4" d="M4.75,3.1409C5.152,3.5275,5.6962,4.1389,6.125,5c0.7246,1.4554,0.7694,2.8017,0.75,3.5"/>
        <path class="flame st5" d="M5.5,3.2818C5.8429,3.6004,6.3714,4.1645,6.75,5c0.5823,1.285,0.542,2.4468,0.5,3"/>
        <path class="flame st6" d="M6.25,3.4227C6.5339,3.6733,7.0499,4.1886,7.375,5c0.4455,1.112,0.3147,2.092,0.25,2.5"/>
        <path class="flame st7" d="M7,3.5636C7.2248,3.7462,7.7343,4.2107,8,5c0.3154,0.9369,0.0873,1.7371,0,2"/>
    </g>

    <linearGradient id="SVGID_2_" gradientUnits="userSpaceOnUse" x1="2.2113" y1="1.1667" x2="2.7887" y2="0.8333">
        <stop  offset="0" style="stop-color:#FFFFFF"/>
        <stop  offset="1" style="stop-color:#E0E0E0"/>
    </linearGradient>


    <circle class="st8" cx="2.5" cy="1" r="0.3334"/>
    <circle cx="2.5" cy="0.9133" r="0.25" style="transform-origin: 2.5px 1px; transform: rotate(0deg); animation-name: dizzy; animation-duration: 1.3333s; animation-iteration-count: infinite; animation-timing-function: linear;"/>



</svg>
